<svg width="159" height="36" viewBox="0 0 159 36" fill="none" xmlns="http://www.w3.org/2000/svg"
    role="img">
    <title>Valtech</title>
    <desc>The Experience Innovation Company</desc>
    <g>
        <path
            d="M158.456 16.8545H142.983L153.926 6.08073L152.28 4.46073L141.338 15.2345V0H139.011V15.2345L128.068 4.46073L126.423 6.08073L137.365 16.8545H121.892V19.1455H137.365L126.423 29.9193L128.068 31.5393L139.011 20.7655V36H141.338V20.7655L152.28 31.5393L153.926 29.9193L142.983 19.1455H158.456V16.8545ZM140.174 19.1455C139.533 19.1455 139.011 18.6316 139.011 18C139.011 17.3684 139.533 16.8545 140.174 16.8545C140.816 16.8545 141.338 17.3684 141.338 18C141.338 18.6316 140.816 19.1455 140.174 19.1455Z"
            fill="#ffffff"></path>
        <path
            d="M19.7448 8.17871L11.1355 31.0878H8.64248L0 8.17871H2.55951L9.90562 28.3714L17.2185 8.17871H19.7448Z"
            fill="#ffffff"></path>
        <path
            d="M27.1738 12.6987C22.5866 12.6987 19.8941 15.0551 19.6282 18.9169H21.955C22.2542 16.1678 24.2819 14.6951 27.1738 14.6951C29.833 14.6951 31.628 15.9387 31.628 18.0333C31.628 19.4733 30.664 20.3242 27.8053 20.3242H25.7444C21.3235 20.3242 18.9302 22.386 18.9302 25.8224C18.9302 29.5205 21.6226 31.4842 25.1794 31.4842C28.304 31.4842 30.9299 29.9133 31.8607 27.0333V31.0915H34.0545V31.0031V18.6224C34.0545 15.1533 31.8607 12.6987 27.1738 12.6987ZM31.7277 22.7133C31.7277 27.426 28.7028 29.5205 25.5782 29.5205C22.6199 29.5205 21.3567 27.6878 21.3567 25.8224C21.3567 24.0878 22.4869 22.2878 25.8109 22.2878H27.4065C29.8995 22.2878 31.2956 21.5351 31.6945 20.1933H31.7277V22.7133Z"
            fill="#ffffff"></path>
        <path d="M38.293 4.90601H40.6198V31.0911H38.293V4.90601Z" fill="#ffffff"></path>
        <path
            d="M49.0628 15.0514V25.9823C49.0628 27.9787 49.8939 29.1242 51.5891 29.1242H53.3841V31.0878H51.2567C48.2651 31.0878 46.736 29.386 46.736 26.2769V15.0514H43.0796V13.0878H46.736V8.17871H49.0628V13.0878H53.3841V15.0514H49.0628Z"
            fill="#ffffff"></path>
        <path
            d="M72.5969 22.7746H57.8382C58.0709 26.9637 60.6304 29.4837 64.1539 29.4837C66.9461 29.4837 69.14 27.9128 69.971 25.5564H72.4307C71.6662 28.9928 68.4419 31.48 64.1539 31.48C58.9019 31.48 55.3452 27.7491 55.3452 22.0873C55.3452 16.4255 58.9684 12.6946 64.1539 12.6946C69.007 12.6946 72.5969 16.2619 72.5969 20.9746V22.7746ZM57.8382 20.7455H70.2369C69.971 17.2109 67.6441 14.6909 64.1539 14.6909C60.6637 14.6909 58.0709 17.3746 57.8382 20.7455Z"
            fill="#ffffff"></path>
        <path
            d="M74.9238 22.0546C74.9238 16.5237 78.2811 12.6946 83.8987 12.6946C89.0177 12.6946 91.8432 15.9673 92.242 19.96H89.7823C89.5496 17.1455 87.4887 14.6909 83.8987 14.6909C79.8434 14.6909 77.3836 17.7346 77.3836 22.0546C77.3836 26.6037 80.209 29.4837 83.8987 29.4837C87.5884 29.4837 89.4499 26.8 89.7823 24.5746H92.242C91.7434 28.2073 88.8515 31.48 83.8987 31.48C78.547 31.48 74.9238 27.7491 74.9238 22.0546Z"
            fill="#ffffff"></path>
        <path
            d="M95.4995 4.90601H97.8263V14.1351C97.8263 14.9533 97.8263 15.5751 97.7599 16.786H97.8263C98.7571 14.7896 100.685 12.6951 103.976 12.6951C107.898 12.6951 110.291 15.4442 110.291 19.7315V31.0878H107.965V20.026C107.965 16.4587 106.136 14.7242 103.477 14.7242C100.519 14.7242 97.8263 16.8842 97.8263 20.9424V31.0878H95.4995V4.90601Z"
            fill="#ffffff"></path>
    </g>
</svg>